<?xml version="1.0" standalone="no"?>
<!DOCTYPE svg PUBLIC "-//W3C//DTD SVG 20010904//EN"
 "http://www.w3.org/TR/2001/REC-SVG-20010904/DTD/svg10.dtd">
<svg version="1.0" xmlns="http://www.w3.org/2000/svg"
 width="1024.000000pt" height="1024.000000pt" viewBox="0 0 1024.000000 1024.000000"
 preserveAspectRatio="xMidYMid meet">

<g transform="translate(0.000000,1024.000000) scale(0.100000,-0.100000)"
fill="#FF0000" stroke="none">
<path d="M3720 6585 c13 -14 26 -25 28 -25 3 0 -5 11 -18 25 -13 14 -26 25
-28 25 -3 0 5 -11 18 -25z"/>
<path d="M3779 6523 c26 -38 27 -53 3 -48 -11 2 -19 -3 -19 -10 0 -8 4 -12 9
-9 4 3 8 0 8 -7 0 -8 5 -7 18 2 15 13 16 12 3 -3 -7 -10 -18 -15 -25 -12 -6 3
0 -3 13 -14 l24 -19 -24 1 c-14 1 -24 7 -24 16 0 8 -10 16 -22 18 -13 2 -23 8
-23 13 0 5 -9 9 -20 9 -11 0 -20 -4 -20 -10 0 -5 -17 -10 -37 -10 -44 0 -123
-36 -123 -56 0 -8 -13 -17 -30 -20 -16 -4 -30 -10 -30 -15 0 -5 -13 -9 -29 -9
-16 0 -31 -5 -33 -11 -5 -15 -58 29 -59 49 0 10 -3 12 -6 5 -2 -7 3 -23 11
-35 18 -25 21 -48 6 -48 -5 0 -7 7 -4 15 4 10 0 15 -12 15 -10 0 -31 12 -47
28 -17 15 -27 21 -23 15 4 -7 2 -13 -4 -13 -6 0 -8 -5 -5 -11 4 -5 12 -8 18
-6 11 3 20 -2 52 -31 13 -12 15 -102 14 -640 0 -825 -5 -880 -81 -966 -42 -49
-96 -78 -180 -96 -53 -12 -60 -12 -79 6 -19 17 -174 207 -314 386 -59 74 -462
612 -487 648 -16 24 -17 -4 -17 -522 l-1 -548 -55 0 c-118 0 -233 43 -272 102
-12 18 -27 54 -32 79 -6 27 -11 249 -12 545 -1 274 -5 526 -9 559 l-7 60 -2
-78 c-1 -92 -11 -107 -70 -107 -23 0 -41 -4 -41 -10 0 -5 5 -10 10 -10 6 0 10
-4 10 -10 0 -5 -21 -10 -47 -11 -48 0 -109 -17 -70 -18 32 -2 17 -21 -16 -21
-19 0 -49 -8 -68 -17 -19 -10 -56 -18 -82 -19 -54 -3 -69 -10 -47 -24 10 -6 3
-8 -20 -4 -27 4 -40 1 -57 -16 -21 -19 -23 -19 -24 -3 -1 10 -6 -2 -13 -27
-10 -39 -12 -19 -16 165 -4 140 -6 35 -8 -318 -2 -589 -1 -605 65 -772 57
-146 117 -239 223 -345 82 -84 117 -110 260 -195 231 -138 488 -283 627 -355
161 -84 162 -84 403 47 221 120 603 341 680 393 204 139 350 365 411 640 17
78 19 135 19 721 0 388 -4 657 -10 690 -17 88 -40 160 -50 154 -5 -3 -7 1 -4
9 7 17 -34 97 -72 141 l-26 30 21 -32z m-182 -129 c-3 -3 -12 -4 -19 -1 -8 3
-5 6 6 6 11 1 17 -2 13 -5z"/>
<path d="M7063 6391 c-72 -18 -116 -69 -128 -146 -19 -127 87 -238 210 -222
131 18 204 119 170 233 -14 49 -56 99 -101 122 -29 15 -113 22 -151 13z"/>
<path d="M3138 6373 c6 -2 18 -2 25 0 6 3 1 5 -13 5 -14 0 -19 -2 -12 -5z"/>
<path d="M3305 6370 c3 -5 8 -10 11 -10 2 0 4 5 4 10 0 6 -5 10 -11 10 -5 0
-7 -4 -4 -10z"/>
<path d="M3095 6360 l-140 -5 -3 -87 c-3 -81 -11 -104 -27 -78 -4 7 -14 5 -27
-4 -16 -12 -26 -12 -41 -4 -16 8 -23 7 -32 -6 -7 -9 -20 -16 -29 -16 -9 0 -16
-4 -16 -10 0 -5 -13 -10 -30 -10 -16 0 -30 -4 -30 -10 0 -5 -9 -10 -20 -10
-11 0 -20 -4 -20 -10 0 -5 -9 -10 -20 -10 -11 0 -20 -4 -20 -10 0 -5 -22 -10
-50 -10 -46 0 -67 -13 -38 -22 9 -3 9 -6 0 -12 -7 -4 -12 -2 -12 3 0 20 -18
11 -25 -11 l-8 -23 -4 23 c-3 13 -12 22 -23 22 -10 0 -20 6 -23 13 -2 7 -8 8
-13 3 -5 -5 -4 -11 4 -13 6 -3 12 -14 12 -25 0 -15 -5 -18 -20 -13 -14 5 -20
2 -20 -9 0 -9 -4 -16 -10 -16 -5 0 -10 6 -10 14 0 8 -6 16 -12 19 -10 3 -10 7
0 19 10 13 10 18 1 24 -8 4 -9 3 -5 -5 4 -6 1 -14 -8 -17 -11 -4 -1 -25 47
-92 63 -89 309 -423 452 -614 l80 -107 3 554 2 555 140 0 c87 0 140 4 140 10
0 6 -1 9 -2 8 -2 -1 -66 -5 -143 -8z m-630 -380 c3 -6 -1 -7 -9 -4 -18 7 -21
14 -7 14 6 0 13 -4 16 -10z m-11 -26 c3 -8 2 -12 -4 -9 -6 3 -10 10 -10 16 0
14 7 11 14 -7z"/>
<path d="M3425 6360 c-3 -5 -1 -10 4 -10 6 0 11 5 11 10 0 6 -2 10 -4 10 -3 0
-8 -4 -11 -10z"/>
<path d="M6060 6040 l0 -170 -110 0 -110 0 0 -135 0 -135 110 0 110 0 0 -322
c0 -435 16 -536 100 -632 42 -47 127 -90 209 -107 78 -15 263 -7 314 15 l37
15 0 135 c0 76 -4 136 -9 136 -5 0 -38 -7 -73 -16 -74 -19 -166 -14 -204 11
-54 35 -57 61 -62 428 l-4 337 171 0 171 0 0 135 0 135 -170 0 -170 0 0 170 0
170 -155 0 -155 0 0 -170z"/>
<path d="M2270 6166 c0 -2 8 -10 18 -17 15 -13 16 -12 3 4 -13 16 -21 21 -21
13z"/>
<path d="M2325 6097 c15 -21 30 -35 32 -33 3 3 -9 20 -27 38 l-32 33 27 -38z"/>
<path d="M4960 5903 c-290 -45 -511 -239 -580 -509 -25 -96 -27 -269 -4 -364
85 -365 496 -587 887 -479 217 60 392 224 459 429 30 92 37 300 13 405 -68
306 -361 530 -683 524 -37 -1 -78 -3 -92 -6z m210 -299 c176 -52 260 -197 248
-427 -7 -115 -34 -189 -94 -256 -80 -89 -204 -129 -339 -110 -86 12 -152 46
-208 109 -58 64 -88 141 -94 246 -13 201 52 344 189 415 79 40 206 50 298 23z"/>
<path d="M7985 5901 c-123 -21 -244 -89 -340 -192 -128 -138 -179 -323 -156
-571 19 -198 70 -316 192 -439 119 -121 266 -175 454 -167 153 7 256 47 352
138 18 16 34 30 37 30 4 0 6 -162 6 -360 l0 -360 155 0 155 0 0 945 0 945
-155 0 -155 0 0 -85 c0 -50 -4 -85 -10 -85 -5 0 -10 4 -10 10 0 18 -102 111
-148 134 -103 52 -261 76 -377 57z m257 -292 c205 -44 320 -225 291 -458 -14
-112 -52 -191 -123 -254 -69 -62 -130 -82 -250 -82 -81 0 -103 4 -150 26 -80
38 -135 90 -171 164 -27 55 -32 77 -36 168 -8 158 19 250 101 335 49 52 102
82 176 98 71 16 98 16 162 3z"/>
<path d="M6970 5205 l0 -665 154 0 154 0 7 65 c4 35 5 113 2 172 -4 59 -6 330
-7 601 l0 492 -155 0 -155 0 0 -665z"/>
</g>
</svg>
